<svg xmlns="http://www.w3.org/2000/svg" xmlns:xlink="http://www.w3.org/1999/xlink" version="1.1" x="0px" y="0px" viewBox="0 0 100 125" style="enable-background:new 0 0 100 100;" xml:space="preserve"><path d="M68.5546875,63.3770752V37.2147217l9.7023926-11.4182739c0.031189-0.0006104,0.0604858-0.0081177,0.0916138-0.0092773  l1.4685059,1.3378906l8.0440674,7.3284912c0.4866943,0.4434204,1.1078491,0.6876221,1.7490845,0.6876221  c1.0317383,0,1.9712524-0.6176758,2.3934937-1.5735474c0.4178467-0.9459839,0.2389526-2.0149536-0.4669189-2.7897339  l-7.3284912-8.0440674l-1.3378906-1.4685059c0.0023804-0.0617676,0.0184326-0.1196899,0.0184326-0.1820068  c0-2.6038818-2.1184082-4.72229-4.72229-4.72229c-0.0739136,0-0.1427002,0.0184937-0.2157593,0.0218506l-1.0510254-0.9575195  L68.855835,8.0968018c-0.4866943-0.4434204-1.1078491-0.6876221-1.7490234-0.6876221  c-1.0317993,0-1.9713135,0.6176758-2.3936157,1.5736084c-0.4178467,0.9459839-0.2388916,2.0148926,0.46698,2.7896729  l7.3284912,8.0441284l0.9575195,1.0510254c-0.0033569,0.0730591-0.0217896,0.1418457-0.0217896,0.2156982  c0,0.0819092,0.0200195,0.1582642,0.0241699,0.2391357L61.7857056,31.25H38.3358765l-11.6824341-9.9276123  c0.0041504-0.0808716,0.0241699-0.1572266,0.0241699-0.2390747c0-0.0739136-0.0184937-0.1427002-0.0218506-0.2157593  l0.9575195-1.0509644l7.3285522-8.0441284c0.7058716-0.7747803,0.8847656-1.843689,0.4669189-2.7896729  c-0.4223022-0.9559326-1.3617554-1.5736084-2.3935547-1.5736084h-0.0001221  c-0.6411743,0.000061-1.2622681,0.2442627-1.7489624,0.6876221l-8.0440674,7.3285522l-1.0509644,0.9575195  c-0.0730591-0.0033569-0.1418457-0.0218506-0.2157593-0.0218506c-2.6038818,0-4.72229,2.1184082-4.72229,4.72229  c0,0.0623169,0.0160522,0.1202393,0.0184326,0.1820068l-1.3378906,1.4685059L8.585083,30.7779541  c-0.7058716,0.7747192-0.8848267,1.843689-0.4669189,2.7896729c0.4222412,0.9558716,1.3617554,1.5735474,2.3934937,1.5735474  c0.6412354,0,1.2623901-0.2442017,1.7490845-0.6876221l8.0440674-7.3284912l1.4685059-1.3378906  c0.0307617,0.0011597,0.0596924,0.008606,0.0906372,0.0092163l9.7039185,11.4188843v26.1612549l-9.4707642,11.1448364  c-0.0308228,0.0006104-0.0598145,0.0079956-0.0905762,0.0091553l-1.4685059-1.3378906l-8.0440674-7.3285522  c-0.4866943-0.4433594-1.1078491-0.6876221-1.7489624-0.6876221h-0.0003052  c-1.0317993,0.0001831-1.9712524,0.6179199-2.3934326,1.5738525c-0.4177246,0.9459229-0.2387695,2.0147705,0.467041,2.7894287  l7.3284912,8.0441284l1.3378906,1.4685059c-0.0023804,0.0617676-0.0184326,0.1196899-0.0184326,0.1820068  c0,2.6038818,2.1184082,4.72229,4.72229,4.72229c0.0739136,0,0.1427002-0.0184937,0.2157593-0.0218506l1.0509644,0.9575195  l8.0441284,7.3285522c0.4867554,0.4434204,1.1079102,0.6876221,1.7490234,0.6876221  c1.0317993,0,1.9713135-0.6176758,2.3935547-1.5736084c0.4178467-0.9459229,0.2389526-2.0148926-0.4669189-2.7896729  l-7.3285522-8.0441284l-0.9575195-1.0509644c0.0033569-0.0730591,0.0218506-0.1418457,0.0218506-0.2157593  c0-0.0822144-0.0201416-0.1588745-0.024292-0.2400513l9.597168-8.1551514  c0.0286865,0.0004883,0.0553589,0.0084839,0.0841675,0.0084839h26.9868164c0.0285645,0,0.0549316-0.0079346,0.083374-0.0084229  l9.5973511,8.1554565c-0.0041504,0.0810547-0.024231,0.1575928-0.024231,0.2396851  c0,0.0738525,0.0184326,0.1426392,0.0217896,0.2156982l-0.9575195,1.0510254l-7.3284912,8.0440674  c-0.7059326,0.7748413-0.8848267,1.843811-0.46698,2.7897339c0.4223022,0.9559326,1.3618164,1.5736084,2.3935547,1.5736084  c0.6411743,0,1.2623291-0.2442017,1.7490234-0.687561l8.0441284-7.3286133l1.0510254-0.9575195  c0.0730591,0.0033569,0.1418457,0.0218506,0.2157593,0.0218506c2.6038818,0,4.72229-2.1184082,4.72229-4.72229  c0-0.0623169-0.0160522-0.1202393-0.0184326-0.1820068l1.3378906-1.4685059l7.3284912-8.0441284  c0.7058716-0.7747803,0.8847656-1.843689,0.4669189-2.7896729c-0.4223022-0.9558716-1.3618164-1.5736084-2.3935547-1.5736084  c-0.6411743,0-1.2623291,0.2442627-1.7490845,0.6876831l-8.0440674,7.3284912l-1.4684448,1.3378906  c-0.0307007-0.0011597-0.0596313-0.0085449-0.0904541-0.0091553L68.5546875,63.3770752z M90.0584717,32.1248779  c0.399231,0.4381714,0.010498,1.0162964-0.4481201,1.0162964c-0.1340942,0-0.2740479-0.0493164-0.4021606-0.1660156  l-8.0440674-7.3285522l1.5658569-1.5658569L90.0584717,32.1248779z M80.8889771,21.083313  c0,1.503479-1.218811,2.72229-2.72229,2.72229s-2.72229-1.218811-2.72229-2.72229s1.218811-2.72229,2.72229-2.72229  S80.8889771,19.579834,80.8889771,21.083313z M66.6586304,10.4255371c-0.399292-0.4382324-0.0105591-1.0163574,0.4481201-1.0163574  c0.1340942,0,0.2741089,0.0494385,0.4021606,0.1660767l8.0440674,7.3284912l-1.5658569,1.565918L66.6586304,10.4255371z   M76.06427,25.2893066l-7.8383789,9.2245483c-0.5778198-1.5485229-1.8920288-2.7315063-3.5230103-3.117981l9.385437-7.9752808  C74.550354,24.2232056,75.2340088,24.8722534,76.06427,25.2893066z M63.5546875,68.8476562H36.5678711c-1.6542969,0-3-1.3457031-3-3  V36.25c0-1.6542969,1.3457031-3,3-3h26.9868164c1.6542969,0,3,1.3457031,3,3v29.5976562  C66.5546875,67.5019531,65.2089844,68.8476562,63.5546875,68.8476562z M35.4190063,31.3960571  c-1.6305542,0.3866577-2.9443359,1.5693359-3.5222168,3.1174927l-7.8389282-9.2243042  c0.8302612-0.4170532,1.513855-1.0661011,1.9758301-1.8687134L35.4190063,31.3960571z M32.6130981,9.5752563  c0.1280518-0.1166382,0.2680664-0.1660156,0.4020996-0.1660767c0.4586792,0,0.8474121,0.578125,0.4481812,1.0163574  l-7.3285522,8.0441284l-1.5658569-1.565918L32.6130981,9.5752563z M21.9553223,18.3610229  c1.503479,0,2.72229,1.218811,2.72229,2.72229s-1.218811,2.72229-2.72229,2.72229s-2.72229-1.218811-2.72229-2.72229  S20.4518433,18.3610229,21.9553223,18.3610229z M10.9138184,32.9751587  c-0.1281128,0.1166992-0.2680664,0.1660156-0.4021606,0.1660156c-0.4586182,0-0.8473511-0.578125-0.4481812-1.0162964  l7.3285522-8.0441284l1.5658569,1.5658569L10.9138184,32.9751587z M10.2966919,68.1928101  c-0.3991699-0.4381714-0.010437-1.0162354,0.4481812-1.0163574c0.1340942,0,0.2740479,0.0493774,0.4021606,0.1660767  l8.0440674,7.3285522l-1.5658569,1.5658569L10.2966919,68.1928101z M19.4662476,79.234375  c0-1.503479,1.218811-2.72229,2.72229-2.72229s2.72229,1.218811,2.72229,2.72229s-1.218811,2.72229-2.72229,2.72229  S19.4662476,80.737854,19.4662476,79.234375z M33.6965942,89.8921509c0.399231,0.4381714,0.010498,1.0162964-0.4481812,1.0162964  c-0.1340332,0-0.2740479-0.0493774-0.4020996-0.1660156l-8.0441284-7.3284912l1.565918-1.565918L33.6965942,89.8921509z   M26.2669067,76.8970947c-0.4619141-0.8026123-1.1456909-1.4517212-1.9758911-1.8687134l7.3326416-8.6287842  c0.1832275,1.638855,1.1495972,3.0286865,2.5275879,3.7977905L26.2669067,76.8970947z M65.9708252,70.1976929  c1.378479-0.769165,2.3450317-2.1593018,2.5281372-3.798584l7.3327637,8.6289062  c-0.8306274,0.4171143-1.5146484,1.0663452-1.9767456,1.8693237L65.9708252,70.1976929z M67.2756958,90.7424316  c-0.1280518,0.1166382-0.2681274,0.1660156-0.4021606,0.1660156c-0.4586792,0-0.8474121-0.578125-0.4481812-1.0162964  l7.3285522-8.0441284l1.5658569,1.565918L67.2756958,90.7424316z M77.9334717,81.956665  c-1.503479,0-2.72229-1.218811-2.72229-2.72229s1.218811-2.72229,2.72229-2.72229s2.72229,1.218811,2.72229,2.72229  S79.4369507,81.956665,77.9334717,81.956665z M88.9749756,67.3425293c0.1281128-0.1166992,0.2680664-0.1660767,0.4020996-0.1660767  c0.4586792,0,0.8474121,0.578186,0.4481812,1.0163574l-7.3284912,8.0441284l-1.565918-1.5658569L88.9749756,67.3425293z"/><text x="0" y="115" fill="#000000" font-size="5px" font-weight="bold" font-family="'Helvetica Neue', Helvetica, Arial-Unicode, Arial, Sans-serif">Created by Oliver Kiss</text><text x="0" y="120" fill="#000000" font-size="5px" font-weight="bold" font-family="'Helvetica Neue', Helvetica, Arial-Unicode, Arial, Sans-serif">from the Noun Project</text></svg>